/* XPM */
static char *a3e8c442afc64dd1d8df9a20880db0c8Ukg56PBeeUCFsLCn[] = {
/* columns rows colors chars-per-pixel */
"12 24 58 1 ",
"  c #100090",
". c #0000A4",
"X c #1717AF",
"o c #1B1BAF",
"O c #393BBF",
"+ c #4343BF",
"@ c #3B3BC5",
"# c #2020D0",
"$ c #2A2AD0",
"% c #2828DB",
"& c #3838F1",
"* c #4040C5",
"= c #4547C5",
"- c #4444CB",
"; c #5151C5",
": c #5F5FCB",
"> c #4444DB",
", c #5959D0",
"< c #6C6CD0",
"1 c #6C6DD5",
"2 c #6161DB",
"3 c #7375DB",
"4 c #4040FC",
"5 c #4F50FC",
"6 c #5254F1",
"7 c #5353FC",
"8 c #6565E1",
"9 c #696BFC",
"0 c #6C70F1",
"q c #7979FC",
"w c #7C80FC",
"e c #8787DB",
"r c #9595E1",
"t c #8989F1",
"y c #8387FC",
"u c #878BFC",
"i c #8C8DFC",
"p c #9A9EFC",
"a c #9C9CFC",
"s c #9FA1FC",
"d c #A1A5F1",
"f c #A3A3FC",
"g c #AAACFC",
"h c #AFB1F1",
"j c #BDBDF1",
"k c #B3B3FC",
"l c #B5B7FC",
"z c #B8BCFC",
"x c #BBBDFC",
"c c #BCC0FC",
"v c #C0C2FC",
"b c #C4C6FC",
"n c #C8CAFC",
"m c #CCCEFC",
"M c #CED0FC",
"N c #D2D2FC",
"B c #D4D4FC",
"V c #D8D8FC",
/* pixels */
" ...........",
" .....:+....",
" .....je....",
" ...;VVVVo..",
" ..:rVVVV1O.",
" ..jVVVVVc3.",
" ;VVmzysVVlw",
" ;VVmz9iVVvp",
" ;VVmz5qVVmz",
" ;VVmzX;VVmz",
" ;VVmzX;VVNn",
" ;VVmzX;VVVV",
" =zBVVusVVVV",
" *gNVVkzVVNn",
" @aNVVVVVVmz",
" ..tkVo;VVmz",
" ..-,<$8VVbg",
" .....&qVVva",
" .....&qVzi4",
" .....6iVzt#",
" .....0sVc3.",
" .....dbVf2.",
" .....hMVq>.",
" .....jVV7%."
};
