/* XPM */
static char *_45c87c522ad45fabbdadd035a56a4fbXfUZh9DL5sJTyzK4[] = {
/* columns rows colors chars-per-pixel */
"13 24 30 1 ",
"  c None",
". c #0000A4",
"X c #1718BA",
"o c #2E2FBA",
"O c #2E30D0",
"+ c #4E4ED0",
"@ c #5D5DD0",
"# c #5C5ED0",
"$ c #6465D0",
"% c #6C6CD0",
"& c #5C5FE6",
"* c #4040FC",
"= c #4E50FC",
"- c #5C60FC",
"; c #6C70FC",
": c #7C80FC",
"> c #8A8EFC",
", c #8C8CFC",
"< c #9394FC",
"1 c #9A9CFC",
"2 c #9C9CFC",
"3 c #A2A4FC",
"4 c #A9ACFC",
"5 c #AAACFC",
"6 c #B1B3FC",
"7 c #BABAFC",
"8 c #B8BCFC",
"9 c #C8CAFC",
"0 c #D0D1FC",
"q c #D8D8FC",
/* pixels */
"............ ",
"....XO#o.... ",
"....O-8#.... ",
"...->8q98... ",
".XO>49q09#o. ",
".O-89qqqq8#. ",
".#8qqq:4qq98 ",
".$9qqq;3qq09 ",
".%qqqq-1qqqq ",
".%qqqq.%qqqq ",
".%qqqq.%qqqq ",
".%qqqq.%qqqq ",
".%qqqq.%qqqq ",
".%qqqq.%qqqq ",
".%qqqq.%qqqq ",
".%qqqq*,qqqq ",
".#7qqq=<qqqq ",
".+2qqq-1qqqq ",
".O-89q89qqqq ",
".XO>6q90qq09 ",
"...-1qqqqq98 ",
"....O-qqq8>- ",
"....XO169>&O ",
"......->8-O. "
};
