/* XPM */
static char *_439537c853e429dde15b9bdca1d8b2crU5GJxHvjkxDJRQU[] = {
/* columns rows colors chars-per-pixel */
"12 24 8 1 ",
"  c #0000A4",
". c #6C6CD0",
"X c #5C60FC",
"o c #8A8EFC",
"O c #A9ACFC",
"+ c #B8BCFC",
"@ c #C8CAFC",
"# c #D8D8FC",
/* pixels */
"            ",
"            ",
"            ",
"   Xo+#.    ",
"   oO@#.    ",
"   +@##.    ",
"   ####.    ",
"   ####.    ",
"   ####.    ",
"   ####.    ",
"   ####.    ",
"   ####.    ",
"   ####.    ",
"   ####.    ",
"   ####.    ",
"   ####.    ",
"   ####.    ",
"   ####.    ",
"   ####.    ",
"   ####.    ",
"   ####.    ",
"   ####.    ",
"   ####.    ",
"   ####.    "
};
