/* XPM */
static char *ac6ac7bf34fd4a73825ff3fce384e103dkaQjQR2AdIlmH85[] = {
/* columns rows colors chars-per-pixel */
"13 24 71 1 ",
"  c None",
". c #2C2A38",
"X c #585400",
"o c #7A7800",
"O c #000040",
"+ c #000058",
"@ c #000059",
"# c #2C2A52",
"$ c #161561",
"% c #000070",
"& c #000072",
"* c #00007E",
"= c #2F1E73",
"- c #5E3C5C",
"; c #543472",
": c #5E3C76",
"> c #643E78",
", c #424252",
"< c #726C52",
"1 c #6B5565",
"2 c #815F49",
"3 c #A86840",
"4 c #BC7848",
"5 c #C87C4C",
"6 c #848400",
"7 c #9E9600",
"8 c #9C9C00",
"9 c #B09B12",
"0 c #B59918",
"q c #A8A400",
"w c #B4AC00",
"e c #AE8A20",
"r c #B89224",
"t c #CC9C30",
"y c #C6A020",
"u c #CFA228",
"i c #D6AA26",
"p c #D8A430",
"a c #EAB62E",
"s c #F0BA30",
"d c #E4D800",
"f c #A09C7E",
"g c #B49577",
"h c #F0945C",
"j c #C0AC5E",
"k c #FC9C60",
"l c #F0E06E",
"z c #00008A",
"x c #0000A4",
"c c #1718AD",
"v c #784A80",
"b c #605681",
"n c #787089",
"m c #7E6AB0",
"M c #7E6CB4",
"N c #2E30D0",
"B c #3E40D0",
"V c #7E74C0",
"C c #6D65D6",
"Z c #6D66D8",
"A c #5D60E6",
"S c #5C60FC",
"D c #6C70FC",
"F c #7C80FC",
"G c #AEA8B5",
"H c #FCD4BC",
"J c #AC9ADC",
"K c #AC9CE0",
"L c #BCB4EC",
"P c #FCD8C4",
"I c #FCE8DC",
/* pixels */
"FFFFFFFFFSNx ",
"FABBBBBBBNcz ",
"FBxxxxxxxxz% ",
"FBxxxxxxxxz% ",
"FBxVn<mb,#$% ",
"FBxIldHj6X.% ",
"FLIwe38tk4-% ",
"DGle2;o0s4-% ",
"Sfd3;xX8d4-% ",
"SJPwe38qw4-% ",
"SCMpuyqrr:=% ",
"SNxksdwr4xz% ",
"SNxx15o,xxz% ",
"SNxx1i6,xxz@ ",
"SNxx<d6,xx%O ",
"SNxxMI6,xx%O ",
"SCMvgl6,xx&O ",
"SKPhad6,xx&O ",
"SNxxVI6,xx&O ",
"SZMvgl6,xx&O ",
"SKPhad6,xx&O ",
"SNxxxxxxxx&O ",
"Nczzzzz*%%@O ",
"xz%%%%%@OOOO "
};
