/* XPM */
static char *_bff3357b70348cd8699145fa7c38c39cKDgBhtfOKEReIwA[] = {
/* columns rows colors chars-per-pixel */
"13 24 32 1 ",
"  c None",
". c #0000A4",
"X c #1010BA",
"o c #1718BA",
"O c #2020D0",
"+ c #2E30D0",
"@ c #4547D0",
"# c #4E4ED0",
"$ c #5D5DD0",
"% c #5C5ED0",
"& c #6465D0",
"* c #6C6CD0",
"= c #5557E6",
"- c #5C5FE6",
"; c #4040FC",
": c #5C60FC",
"> c #6466E6",
", c #6D6DE6",
"< c #7475E6",
"1 c #7B7DE6",
"2 c #7C7EFC",
"3 c #8A8EFC",
"4 c #8C8CFC",
"5 c #9A9CFC",
"6 c #9C9CFC",
"7 c #A9ACFC",
"8 c #BABAFC",
"9 c #B8BCFC",
"0 c #C9C9FC",
"q c #C8CAFC",
"w c #D0D1FC",
"e c #D8D8FC",
/* pixels */
"............ ",
"............ ",
"............ ",
".+:9qeeee:+. ",
".@3qweeee5>+ ",
".%9eeeeeee5: ",
".*e93:9qeeee ",
".&q2=+37qeee ",
".%9;O.:39eee ",
".......%9eee ",
"......O<qewq ",
"......;4eeq9 ",
"......68ee5: ",
"....XO8qeq1+ ",
"....O;eee9%. ",
"....#6eee:+. ",
"...O,8ewq+o. ",
"...;4eeq9... ",
"...68e93:... ",
".XO8qe3-+... ",
".O;eee:+.... ",
".#6eeeeeeeee ",
".%8eeeeeeeee ",
".*eeeeeeeeee "
};
