/* XPM */
static char *b4c051dbad6742b4cb2a4d5aff07e1c6ZU0OEVNv4cMUrF74[] = {
/* columns rows colors chars-per-pixel */
"64 64 256 2 ",
"   c black",
".  c #0000A8",
"X  c #00A800",
"o  c #00A8A8",
"O  c #A80000",
"+  c #A800A8",
"@  c #A85400",
"#  c gray66",
"$  c gray33",
"%  c #5454FC",
"&  c #54FC54",
"*  c #54FCFC",
"=  c #FC5454",
"-  c #FC54FC",
";  c #FCFC54",
":  c gray99",
">  c #ECECEC",
",  c gainsboro",
"<  c #D0D0D0",
"1  c #C0C0C0",
"2  c #B4B4B4",
"3  c gray66",
"4  c #989898",
"5  c gray55",
"6  c #7C7C7C",
"7  c gray44",
"8  c #646464",
"9  c gray33",
"0  c #484848",
"q  c gray22",
"w  c #2C2C2C",
"e  c #202020",
"r  c #FC0000",
"t  c #EC0000",
"y  c #E00000",
"u  c #D40000",
"i  c #C80000",
"p  c #BC0000",
"a  c #B00000",
"s  c #A40000",
"d  c #980000",
"f  c #880000",
"g  c #7C0000",
"h  c #700000",
"j  c #640000",
"k  c #580000",
"l  c #4C0000",
"z  c #400000",
"x  c #FCD8D8",
"c  c #FCB8B8",
"v  c #FC9C9C",
"b  c #FC7C7C",
"n  c #FC5C5C",
"m  c #FC4040",
"M  c #FC2020",
"N  c #FC0000",
"B  c #FCA85C",
"V  c #FC9840",
"C  c #FC8820",
"Z  c #FC7800",
"A  c #E46C00",
"S  c #CC6000",
"D  c #B45400",
"F  c #9C4C00",
"G  c #FCFCD8",
"H  c #FCFCB8",
"J  c #FCFC9C",
"K  c #FCFC7C",
"L  c #FCF85C",
"P  c #FCF440",
"I  c #FCF420",
"U  c #FCF400",
"Y  c #E4D800",
"T  c #CCC400",
"R  c #B4AC00",
"E  c #9C9C00",
"W  c #848400",
"Q  c #706C00",
"!  c #585400",
"~  c #404000",
"^  c #D0FC5C",
"/  c #C4FC40",
"(  c #B4FC20",
")  c #A0FC00",
"_  c #90E400",
"`  c #80CC00",
"'  c #74B400",
"]  c #609C00",
"[  c #D8FCD8",
"{  c #BCFCB8",
"}  c #9CFC9C",
"|  c #80FC7C",
" . c #60FC5C",
".. c #40FC40",
"X. c #20FC20",
"o. c #00FC00",
"O. c #00FC00",
"+. c #00EC00",
"@. c #00E000",
"#. c #00D400",
"$. c #04C800",
"%. c #04BC00",
"&. c #04B000",
"*. c #04A400",
"=. c #049800",
"-. c #048800",
";. c #047C00",
":. c #047000",
">. c #046400",
",. c #045800",
"<. c #044C00",
"1. c #044000",
"2. c #D8FCFC",
"3. c #B8FCFC",
"4. c #9CFCFC",
"5. c #7CFCF8",
"6. c #5CFCFC",
"7. c #40FCFC",
"8. c #20FCFC",
"9. c #00FCFC",
"0. c #00E4E4",
"q. c #00CCCC",
"w. c #00B4B4",
"e. c #009C9C",
"r. c #008484",
"t. c #007070",
"y. c #005858",
"u. c #004040",
"i. c #5CBCFC",
"p. c #40B0FC",
"a. c #20A8FC",
"s. c #009CFC",
"d. c #008CE4",
"f. c #007CCC",
"g. c #006CB4",
"h. c #005C9C",
"j. c #D8D8FC",
"k. c #B8BCFC",
"l. c #9C9CFC",
"z. c #7C80FC",
"x. c #5C60FC",
"c. c #4040FC",
"v. c #2024FC",
"b. c #0004FC",
"n. c #0000FC",
"m. c #0000EC",
"M. c #0000E0",
"N. c #0000D4",
"B. c #0000C8",
"V. c #0000BC",
"C. c #0000B0",
"Z. c #0000A4",
"A. c #000098",
"S. c #000088",
"D. c #00007C",
"F. c #000070",
"G. c #000064",
"H. c #000058",
"J. c #00004C",
"K. c #000040",
"L. c #282828",
"P. c #FCE034",
"I. c #FCD424",
"U. c #FCCC18",
"Y. c #FCC008",
"T. c #FCB400",
"R. c #B420FC",
"E. c #A800FC",
"W. c #9800E4",
"Q. c #8000CC",
"!. c #7400B4",
"~. c #60009C",
"^. c #500084",
"/. c #440070",
"(. c #340058",
"). c #280040",
"_. c #FCD8FC",
"`. c #FCB8FC",
"'. c #FC9CFC",
"]. c #FC7CFC",
"[. c #FC5CFC",
"{. c #FC40FC",
"}. c #FC20FC",
"|. c #FC00FC",
" X c #E000E4",
".X c #C800CC",
"XX c #B400B4",
"oX c #9C009C",
"OX c #840084",
"+X c #6C0070",
"@X c #580058",
"#X c #400040",
"$X c #FCE8DC",
"%X c #FCE0D0",
"&X c #FCD8C4",
"*X c #FCD4BC",
"=X c #FCCCB0",
"-X c #FCC4A4",
";X c #FCBC9C",
":X c #FCB890",
">X c #FCB080",
",X c #FCA470",
"<X c #FC9C60",
"1X c #F0945C",
"2X c #E88C58",
"3X c #DC8854",
"4X c #D08050",
"5X c #C87C4C",
"6X c #BC7848",
"7X c #B47044",
"8X c #A86840",
"9X c #A0643C",
"0X c #9C6038",
"qX c #905C34",
"wX c #885830",
"eX c #80502C",
"rX c #744C28",
"tX c #6C4824",
"yX c #5C4020",
"uX c #543C1C",
"iX c #483818",
"pX c #403018",
"aX c #382C14",
"sX c #28200C",
"dX c #600064",
"fX c #006464",
"gX c #006060",
"hX c #00001C",
"jX c #00002C",
"kX c #302410",
"lX c #480048",
"zX c #500050",
"xX c #000034",
"cX c gray11",
"vX c #4C4C4C",
"bX c gray36",
"nX c gray25",
"mX c gray19",
"MX c #343434",
"NX c #D8F4F4",
"BX c #B8E8E8",
"VX c #9CDCDC",
"CX c #74C8C8",
"ZX c #48C0C0",
"AX c #20B4B4",
"SX c #20B0B0",
"DX c #00A4A4",
"FX c #009898",
"GX c #008C8C",
"HX c #008484",
"JX c #007C7C",
"KX c #007878",
"LX c #007474",
"PX c #007070",
"IX c #006C6C",
"UX c #980088",
/* pixels */
"q w G.D.S.S.S.S.S.A.A.S.A.A.A.A.A.A.A.A.S.G.q q ).F.S.A.A.A.A.A.A.A.Z.A.A.A.S.A.Z.. . Z.Z.A.A.A.Z.A.S.F.q q H.F.S.S.A.A.F.xXcXL.",
"e e G.S.A.S.S.A.A.A.A.A.A.A.S.S.S.S.S.D.D.G.e e J.D.A.A.A.A.A.A.A.A.A.A.A.S.D.D.A.A.S.S.S.S.A.A.A.A.S.F.e e J.F.S.A.Z.A.S.J.hXe ",
"  K.G.S.A.A.A.A.A.A.A.A.S.S.S.S.S.D.F.F.G.J.  e J.D.A.A.A.A.A.A.S.D.D.S.S.D.H.H.F.G.H.J.J.G.D.D.F.F.D.G.  e J.D.A.Z.Z.A.S.G.jX  ",
"  J.D.S.A.A.A.A.A.S.A.A.S.S.D.D.D.F.F.G.H.J.  e K.G.D.F.F.F.F.G.G.J.J.H.G.H.K.K.J.K.jXhXhXjXK.K.xXxXJ.K.  e J.S.A.Z.A.A.S.G.jX  ",
"  J.D.S.A.A.A.A.S.S.S.S.S.S.D.F.F.F.G.G.H.K.  e                                                           e J.S.Z.Z.A.A.D.J.hX  ",
"  xXF.S.A.A.. Z.A.S.S.S.S.S.D.F.G.G.G.G.H.K.  e xXH.G.G.F.F.G.J.K.K.H.H.J.J.G.D.F.J.jXe e e e e e e e e e e J.D.A.Z.A.S.F.J.hX  ",
"  K.D.A.A.Z.. Z.A.S.A.A.A.S.D.F.G.G.G.H.J.xX  e J.D.A.A.Z.A.S.S.D.D.S.S.F.F.S.A.A.F.xX  e H.G.F.G.G.H.K.e e xXF.A.Z.A.S.F.J.hX  ",
"  J.S.A.A.A.Z.Z.A.A.A.A.A.S.S.F.G.G.H.J.J.jX  e G.A.. V.C.. Z.Z.A.A.A.A.A.A.A.A.A.D.J.  e G.S.S.S.F.G.J.  e xXG.A.A.A.S.D.H.jX  ",
"  G.S.A.A.A.A.A.A.A.S.A.A.S.S.F.G.G.G.H.J.jX  e F.Z.C.V.C.. Z.. . Z.Z.A.A.A.A.A.A.S.J.  e F.S.S.S.F.G.J.  e K.F.A.A.A.A.S.G.xX  ",
"  G.S.S.S.A.A.A.A.A.S.S.S.S.D.F.G.F.G.G.J.xX  e F.Z.C.C.. Z.Z.. . . Z.A.A.A.A.S.S.D.H.  e F.S.S.D.G.H.xX  e J.S.A.A.A.A.S.G.xX  ",
"  G.S.S.S.S.S.S.S.S.S.D.F.F.G.G.G.F.F.G.J.xX  e G.A.. . . Z.. . . . Z.A.A.S.S.S.D.G.J.  e F.S.S.D.F.H.xX  e H.S.A.A.A.S.S.G.jX  ",
"  H.D.S.S.S.S.S.S.S.D.F.G.G.G.H.G.G.G.H.J.jX  e G.A.. . Z.Z.Z.. . . Z.A.S.S.D.D.F.H.xX  e G.S.S.D.F.H.K.  e J.F.A.A.S.D.F.J.jX  ",
"  H.D.S.S.D.F.F.D.F.G.G.G.G.G.H.J.J.J.J.xXhX  e D.. C.. Z.Z.A.Z.Z.Z.Z.A.S.S.D.D.G.H.xX  e G.S.D.F.G.J.jX  e jXH.F.D.F.G.H.J.jX  ",
"  J.G.G.G.G.H.H.G.G.H.J.H.H.H.J.J.K.J.K.xXhX  e S.. . A.A.A.A.A.A.A.A.S.S.S.S.D.F.H.xX  e G.S.S.F.H.xXhX  e jXjXK.J.J.J.K.xXjX  ",
"  jXK.J.J.xXxXK.J.J.xXjXxXK.K.xXxXxXxXxXjXhX  e D.Z.Z.A.A.A.A.A.A.S.S.S.S.S.S.D.F.G.K.  e G.S.S.D.G.K.jX  e                     ",
"                                              e F.A.Z.A.A.A.A.A.A.A.S.S.S.D.D.F.G.H.K.  e G.S.A.S.F.H.jX  e e e e e e e e e e e ",
"D.F.F.D.D.D.D.F.F.F.F.G.G.G.J.  J.F.F.G.G.G.J.  F.A.Z.Z.A.A.A.A.A.A.S.S.D.F.F.G.H.J.xX  e G.S.S.S.F.H.jX  e J.G.G.J.  J.F.S.D.F.",
"Z.A.A.A.A.A.A.S.S.S.S.S.S.D.G.  G.S.A.A.A.D.G.  D.A.Z.Z.A.A.S.S.S.S.S.D.F.G.G.H.J.J.xX  e G.D.D.F.G.J.hX  e G.S.S.H.  G.A.Z.Z.Z.",
". Z.Z.Z.Z.A.A.S.S.S.S.S.S.D.G.  H.A.. . A.S.G.  D.A.A.A.A.S.S.F.G.F.F.G.G.G.H.J.J.J.xX  e H.F.G.G.H.K.hX  e F.S.G.J.  F.Z.. C.. ",
". Z.Z.Z.Z.A.S.S.S.S.S.S.D.F.H.  J.S.. . A.S.G.  F.S.S.D.D.D.F.H.J.J.H.H.J.K.J.J.J.K.jX  e J.G.G.H.J.K.hX  e G.G.J.jX  S.. . . . ",
"Z.A.A.A.Z.A.S.S.S.S.D.D.F.G.J.  J.S.Z.Z.A.S.G.  J.G.H.J.J.H.J.xXjXjXxXxXjXjXjXxXxXjXhX  e xXJ.K.K.xXjXhX  e J.K.jXhX  S.Z.. Z.Z.",
"Z.A.A.A.Z.Z.A.S.S.D.F.F.G.H.K.  G.A.A.A.S.D.H.                                          e                           e S.Z.Z.A.A.",
"Z.A.A.A.A.A.A.S.S.D.F.G.G.J.K.  G.A.A.S.S.F.J.  e e e e e e e e e e e e e e e e e e e e e e e e e jXK.H.F.F.G.H.J.e e S.A.A.A.A.",
"Z.A.A.A.A.A.A.A.S.D.F.G.G.J.K.  H.S.A.S.S.G.J.  e cXJ.G.D.F.G.F.S.S.D.F.D.D.D.F.G.F.D.F.G.J.xXe e H.F.S.Z.Z.A.D.J.  e S.A.A.A.A.",
". Z.A.A.A.A.A.A.S.D.F.G.H.J.xX  J.F.S.S.S.F.J.  e K.G.A.Z.Z.A.Z.. C.. Z.A.A.A.A.A.A.A.A.S.D.H.  e G.S.Z.C.C.Z.D.J.  e S.A.A.A.Z.",
". Z.A.A.A.A.A.A.S.S.F.G.J.xXjX  J.G.F.F.F.G.J.  e J.S.Z.C.V.V.V.B.B.V.C.. Z.A.A.A.Z.A.A.S.D.H.  e J.D.Z.V.C.. S.J.  e S.Z.Z.Z.Z.",
". . Z.A.A.A.A.A.S.S.F.G.J.jXhX  xXK.K.J.J.J.xX  e H.S.. C.B.B.B.B.B.B.V.. A.A.S.A.A.S.S.D.G.K.  e J.D.Z.C.C.. A.G.  e S.Z.. . . ",
"Z.Z.A.A.A.A.Z.A.S.D.F.G.J.xXhX                  e G.A.. C.V.B.B.B.V.V.V.C.Z.A.S.S.S.D.F.G.J.jX  e G.A.. . . Z.A.G.  e S.Z.. . . ",
"Z.A.A.A.A.A.Z.A.D.G.G.G.J.xXhX  e e e e e e e e e F.Z.C.C.C.V.V.C.. . . . Z.A.S.S.D.F.G.H.J.jX  e D.Z.C.. Z.A.S.G.  e S.Z.. . Z.",
"A.A.A.A.A.A.A.S.F.G.G.H.J.jXhX  e G.D.D.D.F.J.e e G.A.. C.. . . . . Z.A.Z.A.A.S.D.F.G.G.G.J.jX  e F.Z.C.C.Z.A.S.G.  e S.Z.. Z.A.",
"A.A.A.A.A.A.A.S.F.G.G.H.J.jXhX  e D.A.A.A.S.G.  e H.A.. . Z.A.A.Z.Z.A.A.A.A.S.D.F.G.G.G.H.K.jX  e F.Z.C.C.. A.A.G.  e D.A.A.A.A.",
"A.A.A.A.S.S.S.S.F.G.G.G.J.jXhX  e D.A.A.S.D.H.  e H.A.. . Z.Z.A.Z.A.A.S.S.S.S.F.G.G.H.H.J.jXhX  e D.Z.C.C.Z.A.A.F.  e F.A.A.S.S.",
"A.A.A.A.S.S.S.D.G.G.G.G.J.xXhX  e D.A.A.S.F.J.  e G.A.Z.Z.Z.Z.Z.A.A.S.S.D.S.D.G.G.H.J.J.K.jXhX  e S.. C.. Z.A.A.F.  e G.S.S.S.S.",
"S.S.A.S.S.S.D.F.G.G.H.H.J.K.hX  e D.A.A.S.G.J.  e F.A.Z.A.A.A.A.A.S.S.D.D.F.G.G.H.H.J.J.K.jXhX  e S.. . . A.A.S.G.  e G.S.S.S.S.",
"S.S.S.S.S.D.D.F.G.H.H.H.J.K.hX  e S.A.A.S.G.J.  e G.S.A.A.A.S.S.S.D.F.F.F.F.G.G.H.J.J.J.K.jXhX  e S.. . Z.A.S.D.H.  e G.S.A.S.S.",
"S.S.S.D.D.F.F.F.G.H.H.J.J.K.hX  e D.A.A.D.G.J.  e K.G.D.D.F.G.G.G.G.G.G.G.G.G.J.J.J.J.K.jXhXhX  e S.Z.Z.A.S.S.F.H.  e G.S.A.A.S.",
"S.S.D.F.F.F.F.F.G.G.H.J.J.K.jX  e F.A.S.F.H.xX  e cXxXJ.J.xXjXxXK.K.J.J.J.J.J.xXjXjXjXjXhXhX    e S.Z.Z.A.S.D.F.J.  e H.S.A.A.A.",
"D.F.F.F.G.G.G.G.G.H.J.J.J.J.jX  e F.S.S.D.H.jX  e                                               e S.Z.Z.S.D.F.G.J.  e J.F.A.A.A.",
"G.J.J.H.G.H.J.H.J.J.J.K.J.K.jX  e G.S.A.S.G.xX  e e e e e e e e e e e e e e e e e e e e e e e e e S.Z.Z.S.D.G.H.xX  e J.F.S.S.S.",
"K.jXjXxXK.jXjXxXxXxXxXxXxXjXjX  e G.A.A.S.G.K.  e G.D.S.S.S.S.S.D.D.F.G.G.H.xXxXJ.J.K.K.J.J.J.e e S.Z.Z.A.S.G.J.jX  e J.G.G.G.G.",
"                                e F.A.A.S.G.K.  e F.Z.. . . Z.Z.Z.A.A.A.A.D.G.G.F.D.F.G.F.F.H.  e D.A.Z.A.S.F.J.jX  e           ",
"e e e e e G.F.F.F.G.G.G.G.K.jXe e F.A.S.D.G.K.  e S.. V.V.V.C.C.. . . Z.A.S.S.S.S.S.S.S.S.D.J.  e S.A.A.S.S.F.H.xX  e K.H.H.K.  ",
"e G.S.S.S.A.Z.Z.A.A.A.A.S.F.J.e e G.S.S.D.G.K.  e S.C.V.V.V.V.V.C.. . Z.A.S.S.A.A.S.S.A.S.D.J.  e D.A.S.D.F.G.J.jX  e J.G.G.J.  ",
"e S.Z.. . C.C.C.. . . . Z.A.G.  e J.D.S.D.G.K.  e S.C.V.V.B.B.B.C.. Z.A.A.S.S.S.S.S.S.S.S.D.J.  e D.A.D.G.G.H.K.jX  e G.F.G.J.  ",
"e S.. C.V.V.V.. . . . . . A.F.  e xXH.G.H.J.xX  e S.. V.V.B.B.B.C.Z.Z.A.A.S.S.D.D.D.S.S.S.F.J.  e F.S.F.G.H.J.xXhX  e H.G.G.K.  ",
"e D.Z.C.V.V.C.. Z.Z.. . Z.A.G.  e               e D.Z.C.V.B.B.V.C.. Z.A.A.S.D.F.F.G.F.F.F.G.J.  e J.G.J.K.K.xXjXhX  e J.H.J.jX  ",
"e F.Z.. C.C.C.Z.Z.Z.. . Z.S.H.  e e e e e e e e e D.Z.C.C.C.C.C.C.. Z.A.A.S.S.D.G.G.G.G.G.G.J.  e                   e K.J.xXhX  ",
"e D.Z.. . . . Z.Z.Z.Z.Z.A.S.H.  e J.F.D.G.H.K.e e D.Z.C.C.. Z.. C.C.. Z.A.S.S.D.G.G.G.G.H.J.xX  e e e e e e e e e e e e e e e   ",
"e D.Z.. . Z.Z.A.A.A.A.A.A.S.H.  e J.S.A.A.S.G.  e D.Z.C.. Z.Z.. C.V.C.. A.A.S.D.G.G.H.H.H.J.xX  e jXK.H.F.D.F.F.D.D.D.D.F.H.xX  ",
"e G.A.. . Z.Z.A.A.S.S.A.S.F.J.  e J.S.A.Z.A.G.  e G.A.. . Z.. C.V.V.C.. A.A.S.D.G.H.H.H.H.J.xX  e K.G.S.A.Z.Z.A.A.A.A.A.D.J.jX  ",
"e J.D.Z.. . Z.Z.A.S.S.S.F.J.jX  e G.A.Z.Z.A.G.  e H.S.Z.. Z.. . C.C.C.. Z.A.S.F.G.H.H.J.J.J.xX  e K.G.A.. V.V.C.. Z.A.S.G.K.hX  ",
"e J.F.A.. . C.C.Z.A.S.S.F.J.hX  e D.Z.Z.A.S.G.  e H.A.. . Z.Z.Z.Z.Z.Z.Z.Z.A.S.F.G.G.H.J.J.xXjX  e J.D.Z.C.V.V.V.. Z.A.S.G.J.hX  ",
"e G.S.Z.C.C.B.B.. A.A.S.F.J.jX  e S.Z.. A.S.G.  e G.A.. Z.A.A.A.S.A.A.A.A.S.D.D.F.G.G.H.J.xXhX  e G.A.. . C.C.C.. Z.A.S.F.J.jX  ",
"e G.A.. C.V.B.B.. A.S.D.G.J.jX  e S.Z.. Z.S.G.  e G.A.. Z.A.S.S.S.S.S.S.S.S.F.D.D.D.G.G.J.K.jX  e F.Z.. . Z.. . Z.A.S.F.G.J.hX  ",
"e H.A.. C.V.V.C.Z.A.S.G.H.xXhX  e S.Z.. A.S.G.  e G.A.. . A.A.S.S.S.S.S.S.F.F.D.S.D.F.G.H.K.jX  e F.A.. . Z.Z.A.A.S.D.G.H.K.hX  ",
"e H.S.Z.C.C.. Z.A.A.S.G.J.xXhX  e S.Z.Z.A.S.H.  e H.S.Z.. Z.A.S.S.S.D.D.D.F.G.F.D.D.G.H.J.xXhX  e F.A.. . Z.A.A.A.S.F.F.G.K.hX  ",
"e G.A.Z.. . Z.A.A.A.S.D.G.K.hX  e S.A.A.S.F.J.  e H.S.Z.Z.Z.A.S.S.S.S.S.D.F.G.G.F.F.G.J.K.jXhX  e D.Z.. . Z.A.A.A.S.D.D.G.J.hX  ",
"e F.A.Z.Z.A.A.A.S.S.S.S.G.J.jX  e S.A.S.D.G.J.  e G.A.Z.Z.A.A.A.A.A.S.S.F.G.G.G.G.G.H.J.K.jXhX  e S.. . Z.A.A.Z.Z.A.S.S.F.J.jX  ",
"e D.A.A.A.S.S.S.S.D.S.S.D.H.jX  e S.A.S.F.G.K.  e F.A.Z.Z.Z.A.A.A.A.S.S.F.G.G.G.H.H.J.J.K.jXhX  e S.Z.. Z.A.A.A.Z.A.S.S.D.H.jX  ",
"e D.A.S.S.S.S.D.F.F.D.D.F.H.jX  e S.A.S.F.G.K.  e F.A.Z.Z.Z.A.S.S.S.S.F.G.G.G.H.H.J.J.J.K.jXhX  e S.Z.. Z.A.A.A.A.A.S.D.F.H.jX  ",
"e F.S.S.S.D.D.D.F.F.F.F.G.J.jX  e F.S.D.F.G.J.  e G.A.Z.Z.A.S.S.D.F.F.G.G.G.H.H.H.H.J.J.J.xXjX  e S.A.Z.Z.A.A.S.S.S.D.F.G.J.jX  ",
"e G.S.S.S.D.D.F.F.F.F.G.G.H.xXe e G.D.D.F.G.J.e e F.A.A.A.A.S.D.F.F.F.F.G.G.H.H.G.G.H.J.J.K.e e e D.S.A.A.S.S.S.S.D.D.F.G.H.xX  ",
"q (.D.D.F.F.F.G.G.G.G.G.G.H.).q q (.F.F.G.(.MXq q (.S.S.S.D.D.F.F.G.G.G.G.G.H.H.G.G.G.H.).MXMXq q (.D.D.D.D.F.F.F.F.F.G.G.G.).e ",
"$ $ $ $ $ $ $ $ $ $ $ $ $ $ $ $ $ $ $ $ $ $ $ $ $ $ $ $ $ $ $ $ $ $ $ $ $ $ $ $ $ $ $ $ $ $ $ $ $ $ $ $ $ $ $ $ $ $ $ $ $ $ $ q "
};
