/* XPM */
static char *d3d85e7295b441c4a8272e1cf12cba65s53L3rHpHEFuo2VE[] = {
/* columns rows colors chars-per-pixel */
"64 64 256 2 ",
"   c black",
".  c #0000A8",
"X  c #00A800",
"o  c #00A8A8",
"O  c #A80000",
"+  c #A800A8",
"@  c #A85400",
"#  c gray66",
"$  c gray33",
"%  c #5454FC",
"&  c #54FC54",
"*  c #54FCFC",
"=  c #FC5454",
"-  c #FC54FC",
";  c #FCFC54",
":  c gray99",
">  c #ECECEC",
",  c gainsboro",
"<  c #D0D0D0",
"1  c #C0C0C0",
"2  c #B4B4B4",
"3  c gray66",
"4  c #989898",
"5  c gray55",
"6  c #7C7C7C",
"7  c gray44",
"8  c #646464",
"9  c gray33",
"0  c #484848",
"q  c gray22",
"w  c #2C2C2C",
"e  c #202020",
"r  c #FC0000",
"t  c #EC0000",
"y  c #E00000",
"u  c #D40000",
"i  c #C80000",
"p  c #BC0000",
"a  c #B00000",
"s  c #A40000",
"d  c #980000",
"f  c #880000",
"g  c #7C0000",
"h  c #700000",
"j  c #640000",
"k  c #580000",
"l  c #4C0000",
"z  c #400000",
"x  c #FCD8D8",
"c  c #FCB8B8",
"v  c #FC9C9C",
"b  c #FC7C7C",
"n  c #FC5C5C",
"m  c #FC4040",
"M  c #FC2020",
"N  c #FC0000",
"B  c #FCA85C",
"V  c #FC9840",
"C  c #FC8820",
"Z  c #FC7800",
"A  c #E46C00",
"S  c #CC6000",
"D  c #B45400",
"F  c #9C4C00",
"G  c #FCFCD8",
"H  c #FCFCB8",
"J  c #FCFC9C",
"K  c #FCFC7C",
"L  c #FCF85C",
"P  c #FCF440",
"I  c #FCF420",
"U  c #FCF400",
"Y  c #E4D800",
"T  c #CCC400",
"R  c #B4AC00",
"E  c #9C9C00",
"W  c #848400",
"Q  c #706C00",
"!  c #585400",
"~  c #404000",
"^  c #D0FC5C",
"/  c #C4FC40",
"(  c #B4FC20",
")  c #A0FC00",
"_  c #90E400",
"`  c #80CC00",
"'  c #74B400",
"]  c #609C00",
"[  c #D8FCD8",
"{  c #BCFCB8",
"}  c #9CFC9C",
"|  c #80FC7C",
" . c #60FC5C",
".. c #40FC40",
"X. c #20FC20",
"o. c #00FC00",
"O. c #00FC00",
"+. c #00EC00",
"@. c #00E000",
"#. c #00D400",
"$. c #04C800",
"%. c #04BC00",
"&. c #04B000",
"*. c #04A400",
"=. c #049800",
"-. c #048800",
";. c #047C00",
":. c #047000",
">. c #046400",
",. c #045800",
"<. c #044C00",
"1. c #044000",
"2. c #D8FCFC",
"3. c #B8FCFC",
"4. c #9CFCFC",
"5. c #7CFCF8",
"6. c #5CFCFC",
"7. c #40FCFC",
"8. c #20FCFC",
"9. c #00FCFC",
"0. c #00E4E4",
"q. c #00CCCC",
"w. c #00B4B4",
"e. c #009C9C",
"r. c #008484",
"t. c #007070",
"y. c #005858",
"u. c #004040",
"i. c #5CBCFC",
"p. c #40B0FC",
"a. c #20A8FC",
"s. c #009CFC",
"d. c #008CE4",
"f. c #007CCC",
"g. c #006CB4",
"h. c #005C9C",
"j. c #D8D8FC",
"k. c #B8BCFC",
"l. c #9C9CFC",
"z. c #7C80FC",
"x. c #5C60FC",
"c. c #4040FC",
"v. c #2024FC",
"b. c #0004FC",
"n. c #0000FC",
"m. c #0000EC",
"M. c #0000E0",
"N. c #0000D4",
"B. c #0000C8",
"V. c #0000BC",
"C. c #0000B0",
"Z. c #0000A4",
"A. c #000098",
"S. c #000088",
"D. c #00007C",
"F. c #000070",
"G. c #000064",
"H. c #000058",
"J. c #00004C",
"K. c #000040",
"L. c #282828",
"P. c #FCE034",
"I. c #FCD424",
"U. c #FCCC18",
"Y. c #FCC008",
"T. c #FCB400",
"R. c #B420FC",
"E. c #A800FC",
"W. c #9800E4",
"Q. c #8000CC",
"!. c #7400B4",
"~. c #60009C",
"^. c #500084",
"/. c #440070",
"(. c #340058",
"). c #280040",
"_. c #FCD8FC",
"`. c #FCB8FC",
"'. c #FC9CFC",
"]. c #FC7CFC",
"[. c #FC5CFC",
"{. c #FC40FC",
"}. c #FC20FC",
"|. c #FC00FC",
" X c #E000E4",
".X c #C800CC",
"XX c #B400B4",
"oX c #9C009C",
"OX c #840084",
"+X c #6C0070",
"@X c #580058",
"#X c #400040",
"$X c #FCE8DC",
"%X c #FCE0D0",
"&X c #FCD8C4",
"*X c #FCD4BC",
"=X c #FCCCB0",
"-X c #FCC4A4",
";X c #FCBC9C",
":X c #FCB890",
">X c #FCB080",
",X c #FCA470",
"<X c #FC9C60",
"1X c #F0945C",
"2X c #E88C58",
"3X c #DC8854",
"4X c #D08050",
"5X c #C87C4C",
"6X c #BC7848",
"7X c #B47044",
"8X c #A86840",
"9X c #A0643C",
"0X c #9C6038",
"qX c #905C34",
"wX c #885830",
"eX c #80502C",
"rX c #744C28",
"tX c #6C4824",
"yX c #5C4020",
"uX c #543C1C",
"iX c #483818",
"pX c #403018",
"aX c #382C14",
"sX c #28200C",
"dX c #600064",
"fX c #006464",
"gX c #006060",
"hX c #00001C",
"jX c #00002C",
"kX c #302410",
"lX c #480048",
"zX c #500050",
"xX c #000034",
"cX c gray11",
"vX c #4C4C4C",
"bX c gray36",
"nX c gray25",
"mX c gray19",
"MX c #343434",
"NX c #D8F4F4",
"BX c #B8E8E8",
"VX c #9CDCDC",
"CX c #74C8C8",
"ZX c #48C0C0",
"AX c #20B4B4",
"SX c #20B0B0",
"DX c #00A4A4",
"FX c #009898",
"GX c #008C8C",
"HX c #008484",
"JX c #007C7C",
"KX c #007878",
"LX c #007474",
"PX c #007070",
"IX c #006C6C",
"UX c #980088",
/* pixels */
"q w G.D.S.S.S.S.S.A.A.S.A.A.A.A.A.A.A.A.A.S.S.S.S.S.D.G.q q G.D.S.A.A.S.S.S.S.S.D.F.J.q q H.D.S.A.S.S.S.S.S.S.F.H.q D.S.F.).cXq ",
"e ).G.S.A.S.S.A.A.A.A.A.A.A.S.S.S.S.S.S.A.A.S.S.S.D.F.H.e e G.S.A.A.A.A.A.S.S.S.D.H.xXe e F.A.Z.Z.A.A.A.A.A.A.D.G.e F.S.D.J.cXe ",
"  K.G.S.A.A.A.A.A.A.A.A.A.S.S.S.D.D.D.S.S.S.S.D.F.F.G.J.  e G.S.A.A.A.A.A.S.S.D.F.J.jX  e S.Z.C.C.C.. . . . Z.S.G.  G.S.S.G.jX  ",
"  J.D.S.A.A.A.A.A.A.A.A.A.A.S.D.D.F.F.D.D.S.D.F.G.G.H.K.  e F.A.A.A.A.A.A.S.S.D.F.H.jX  e S.. C.V.V.V.C.C.. Z.A.G.  G.S.S.G.jX  ",
"  J.D.S.S.S.A.A.A.A.A.A.A.A.S.D.D.F.F.F.F.F.F.G.G.H.J.K.  e F.A.A.A.A.A.S.S.D.F.G.H.xX  e S.. C.V.B.B.V.C.. Z.S.G.  G.D.F.J.hX  ",
"  xXF.S.S.S.A.A.S.A.A.A.A.A.S.D.F.F.F.F.F.G.G.G.H.J.J.K.  e F.A.A.A.A.S.S.S.D.F.G.J.jX  e S.. C.C.V.B.V.C.Z.A.S.G.  H.G.G.K.hX  ",
"  K.D.A.A.A.A.A.A.S.S.A.A.A.S.D.F.F.F.F.G.G.G.H.J.J.J.xX  e F.A.A.A.S.S.D.D.D.F.G.J.jX  e S.. . . C.V.C.. A.S.D.H.  J.H.H.xXhX  ",
"  J.S.A.A.A.A.A.A.S.S.S.S.S.S.F.G.G.G.G.G.G.G.H.J.J.J.xX  e F.A.A.A.S.S.D.D.D.F.G.J.jX  e S.. C.. . C.. Z.S.D.G.J.  jXK.K.jXhX  ",
"  G.S.A.S.A.A.A.A.S.D.D.S.S.D.F.G.G.G.G.G.G.G.G.H.J.K.jX  e F.S.A.S.S.S.S.S.D.F.G.J.jX  e S.. C.. . . Z.A.S.D.G.J.              ",
"  G.S.S.S.S.S.S.S.S.D.F.F.D.D.G.G.H.J.H.G.G.F.G.G.J.K.jX  e G.S.S.S.D.S.S.S.S.F.G.H.K.  e S.. C.. . Z.A.A.S.D.G.J.  jXK.J.xXhX  ",
"  G.S.S.S.S.D.D.D.D.D.F.F.F.F.G.H.J.J.J.H.G.G.G.G.J.K.jX  e G.D.D.D.D.D.S.S.D.F.G.H.xX  e S.. C.. Z.A.A.S.S.S.F.J.  K.G.D.G.jX  ",
"  H.D.S.S.D.F.G.F.F.F.G.G.G.G.G.J.J.J.J.J.H.G.G.H.J.xXjX  e H.F.F.F.F.F.F.F.F.G.H.J.xX  e D.A.Z.Z.A.S.S.S.S.S.F.J.  J.F.S.F.K.  ",
"  H.D.S.S.F.G.G.G.G.G.G.H.H.H.J.J.J.J.J.J.J.J.J.K.e jXcX  e ).H.G.G.H.H.H.G.H.H.J.J.jX  e G.S.S.S.G.H.H.G.D.F.G.J.  K.G.D.F.J.  ",
"  J.G.G.G.H.H.H.H.H.J.e e e e e e e e e e e e e e e e e e e e e e e e e e e e e e e e e e e e e e e e e e G.G.H.K.  xXJ.H.H.K.  ",
"  jXK.J.J.xXxXxXJ.J.K.e 5 5 6 6 6 6 6 6 6 6 6 6 6 6 6 6 6 6 6 6 6 6 6 6 6 6 6 6 6 6 6 6 6 6 6 6 6 8 8 $ L.H.H.J.xX  jXK.K.K.jX  ",
"                      e 5 8 0 0 0 0 0 0 0 0 0 0 0 0 0 0 0 0 0 0 0 0 0 0 0 0 0 0 0 0 0 0 0 0 0 0 0 0 0 0 L.J.H.J.xX              ",
"F.F.F.D.D.D.D.F.F.G.G.e 6 0 0 0 0 0 0 0 0 0 0 0 0 0 0 0 0 0 0 0 0 0 0 0 0 0 0 0 0 0 0 0 0 0 0 0 0 0 0 0 L.J.G.H.K.  K.G.S.A.S.D.",
"Z.A.A.A.A.A.A.S.S.S.F.e 6 0 0                                                                     $ 0 0 L.H.G.H.K.  H.A.C.B.V.C.",
". Z.Z.Z.Z.A.A.S.S.S.F.e 6 0 0       q L.          q L.          q L.          q L.        q L.    $ 0 0 L.J.H.J.xX  F.. B.B.B.B.",
". Z.A.Z.Z.A.S.S.S.D.G.e 6 0 0       $ q           $ q           $ q           $ q         $ q     8 0 0 L.J.H.J.jX  S.C.B.V.V.V.",
"Z.A.A.A.Z.A.S.S.S.G.J.e 6 0 0       8 q           8 q           8 q           8 q         8 q     8 0 0 L.J.H.J.jX  S.C.V.V.C.C.",
"Z.A.A.A.A.A.A.S.S.G.).e 6 0 0       8 q           8 q           8 q           8 q         8 q     6 0 0 L.J.H.J.xX  S.C.V.C.C.. ",
"Z.A.A.A.A.A.A.S.S.G.J.e 6 0 0       8 q           8 q           8 q           8 q         8 q     6 0 0 L.J.H.J.K.  S.C.C.C.C.C.",
"Z.A.A.A.A.A.A.A.S.G.).e 6 0 0       8 q           8 q           8 q           8 q         8 q     6 0 0 L.J.H.J.xX  S.C.C.C.C.C.",
". Z.A.A.A.A.A.S.D.G.J.e 6 0 0       8 q           8 q           8 q           8 q         8 q     6 0 0 0 ).H.J.jX  S.C.C.C.C.C.",
". Z.A.A.A.A.S.S.D.H.J.e 6 0 0       8 q           8 q           8 q           8 q         8 q     6 0 0 8 MXH.J.xX  S.C.V.C.C.. ",
". . Z.A.A.S.S.S.D.G.J.e 6 0 0       8 q           8 q           8 q           8 q         8 q     6 0 0 q nX(.J.K.  D.. V.C.C.. ",
"Z.Z.A.A.A.A.A.S.D.G.J.e 6 0 0       8 q           8 q           8 q           8 q         8 q     6 0 0 8 nXH.H.J.  F.Z.V.V.C.. ",
"Z.A.A.A.A.A.A.S.F.H.J.e 6 0 0       8 q           8 q           8 q           8 q         8 q     6 0 0 8 q H.H.J.  F.Z.V.V.C.. ",
"A.A.A.A.A.A.A.S.G.H.).e 6 0 0       8 q           8 q           8 q           8 q         8 q     6 0 0 0 q J.J.K.  F.. V.C.. Z.",
"A.A.A.A.A.A.S.S.F.H.K.e 6 0 0       8 q           8 q           8 q           8 q         8 q     6 0 0 L.mXJ.J.K.  G.A.C.. Z.A.",
"A.A.A.A.A.A.S.D.F.G.J.e 6 0 0       8 q           8 q           8 q           8 q         8 q     6 0 0 L.mXJ.J.K.  H.A.. . Z.A.",
"A.A.A.A.A.S.S.D.F.G.J.e 6 0 0 $ 8 6 8 0 $ $       8 q           8 q           8 q         8 q     6 0 0 L.w J.H.J.  J.S.. . A.A.",
"S.S.A.S.S.S.S.D.F.G.J.e 6 0 0 0 0 0 0 0 0 0       8 q           8 q           8 q         8 q     6 0 0 L.w H.G.J.  K.D.Z.Z.A.S.",
"S.S.S.S.S.D.D.F.G.H.J.e 6 0 0 0 0 0 0 0 0 0       8 q           8 q           8 q         8 q     6 0 0 L.).G.G.J.  K.D.Z.Z.A.A.",
"S.S.S.D.D.D.F.F.G.J.K.e 6 0 0 0 0 0 0 0 0 0       8 q           8 q           8 q         8 q     6 0 0 L.).H.H.J.  J.D.A.Z.A.A.",
"S.S.D.F.F.F.F.G.G.H.J.e 6 0 0 0 0 0   0 0 0       8 q           8 q           8 q         8 q     6 0 0 L.).J.J.K.  K.F.A.A.A.A.",
"D.F.F.F.G.G.G.G.G.H.J.e 6 0 0   0   L.L.0 0       8 q           8 q           8 q         8 q     6 0 0 L.).J.J.xX  xXH.S.A.A.S.",
"G.J.J.H.H.J.J.J.J.J.J.e 6 0 0 L.0   L.L.0 0       8 q           8 q           8 q         8 q     6 0 0 L.xXK.K.jX  jXH.D.S.S.S.",
"K.jXjXxXxXjXjXxXK.K.xXe 6 0 0 0 0   0 L.0 0       8 q           8 q           8 q         8 q     6 0 0 L.K.J.K.jX  xXJ.G.G.G.G.",
"                      e 6 0 0 0 0 L.8 L.0 0       8 q           8 q           8 q         8 q     6 0 0 L.J.J.J.xX              ",
"e e e e e e G.F.G.G.J.e 6 0 0 0 0 0 L.0 0 0       8 q           8 q           8 q         8 q     6 0 0 L.J.J.K.jX  e jXK.J.xX  ",
"e e G.D.D.S.A.Z.A.A.F.e 6 0 0 0 0 0 0 0 0 0       8 q           8 q           8 q         8 q     6 0 0 L.xXxXjXhX  e xXJ.J.xX  ",
"e e S.Z.Z.. C.C.. Z.S.e 6 0 0 0 0 0 0 0 0 0       8 q           8 q           8 q         8 q     6 0 0 L.          e K.J.K.jX  ",
"e e S.. C.C.C.C.. A.F.e 6 0 0 0 0 0 0 0 0 0       8 q           8 q           8 q         8 q     6 0 0 L.e e e e e e e e e e   ",
"e e S.. C.C.C.C.. A.G.e 6 0 0                     8 q           8 q 2         8 q         8 q     6 0 0 L.H.G.D.S.S.S.S.D.G.xX  ",
"e e D.Z.. . . . Z.S.G.e 6 0 0       0 q           8 q         2 2 2 8 8       8 q         8 q     6 0 0 L.F.A.A.Z.A.A.A.S.G.xX  ",
"e e D.Z.. Z.Z.Z.A.S.G.e 6 0 0       $ q           8 q         0 0 q q 0       8 q   L.q q 8 q     6 0 0 L.D.A.Z.Z.A.A.A.S.G.xX  ",
"e e D.Z.. Z.Z.Z.A.S.G.e 6 0 0       8 q           8 q         4 4 4 q         8 q L.8 6 6 8 q q   6 0 0 L.D.A.Z.A.A.S.S.D.H.xX  ",
"e e F.A.. . Z.Z.A.F.J.e 6 0 0       8 q           8 q         8 8 8 q         8 q   1 5 5 8 q q   6 0 0 $ D.A.A.A.A.S.D.G.K.hX  ",
"e e J.S.Z.. . . A.D.J.e 6 0 0       8 q           8 q           6 q q q L.$ $ 8 q     < # 8 q 8   6 0 0 8 /.S.A.A.A.S.F.H.jXhX  ",
"e e ).F.A.. . C.. S.(.e 6 0 0       8 q           8 q           8 q       5 5 8 q   e 1 < 8 q 8   6 0 0 q 0 D.A.A.A.S.D.H.xXhX  ",
"e e J.S.Z.. C.B.V.A.G.e 6 0 0       8 q           8 q           8 q     q q 5 8 q L.6 $   8 q 8   6 0 0 8 0 S.S.A.A.S.D.G.K.hX  ",
"e e H.S.. C.V.B.C.S.H.e 6 0 0       8 q           8 q           8 q   0 L.8 e 8 q   L.1 L.8 q 0   6 0 0 8 nXD.S.S.S.S.F.H.xXhX  ",
"e e J.S.Z.C.C.V.. S.J.e 6 0 0       8 q           8 q           8 q e 0 e 8 e 8 q 5 5 1 1 8 q     6 0 0 0 nXF.S.S.S.S.G.J.xXhX  ",
"e e K.D.A.. . . A.S.G.e 6 0 0       8 q           8 q           8 q e $ e 8 $ 8 q   8 q   8 q     6 0 0 L.MXH.F.S.S.D.G.J.xXhX  ",
"e e J.S.Z.. Z.A.A.S.G.e 6 0 0       8 q           8 q           8 q e q q q 8 8 q         8 q     6 0 0 L.mXJ.G.D.D.G.H.J.K.hX  ",
"e e G.S.Z.Z.Z.A.S.S.G.e 6 0 0       8 q           8 q   e e e e 8 q e L.0 0 8 8 q 8 0 0   8 q     6 0 0 L.w H.G.F.F.G.J.J.K.jX  ",
"e e F.A.A.A.A.S.S.D.G.e 6 0 0       8 q           8 q e e e e e 8 q e L.L.q q 8 q # 0 $ 0 8 q     6 0 0 L.).H.G.G.G.H.J.J.J.jX  ",
"e e F.A.A.S.S.S.S.F.G.e 6 0 0       8 q         e 8 q e e e e e 8 q e e e e e 8 q L.0 $ 0 8 q     6 0 0 L.).G.G.G.G.H.H.J.J.jX  ",
"e e G.S.S.S.D.D.D.G.H.e 6 0 0       8 q       e e 8 q e e   $ 5 8 q e e e e e 8 q L.0 $ 0 8 q     5 $ 0 L.).H.G.G.G.H.H.J.J.jX  ",
"e e G.S.S.D.F.F.F.G.H.e 8 0 0 8 8 6 6 6 6 6 6 6 6 6 6 6 6 6 6 6 6 6 6 6 6 6 6 6 6 6 6 6 6 6 6 6 5 5 $ 0 L.w H.G.G.G.G.G.H.J.xXe ",
"q q (.F.F.F.G.G.G.G.).e $ 0 0 0 0 0 0 0 0 0 0 0 0 0 0 0 0 0 0 0 0 0 0 0 0 0 0 0 0 0 0 0 0 0 0 0 0 $ $ 0 L.MX(.G.G.G.G.G.G.H.w q ",
"$ $ $ $ $ $ $ $ $ $ 0 q L.L.L.L.L.L.L.L.L.L.L.L.L.L.L.L.L.L.L.L.L.L.L.L.L.L.L.L.L.L.L.L.L.L.L.L.L.L.L.L.L.$ $ $ $ $ $ $ $ $ $ $ "
};
